{"title":"Lucy.2014.WEB-DL.x264-ChaoS","uid":11383156,"size":814711793,"categoryP":"video","categoryS":"movies","magnet":"?xt=urn:btih:6e90dacdc36088736f2a67d31a3b6f2cf7035bb4&amp;dn=Lucy.2014.WEB-DL.x264-ChaoS&amp;tr=udp%3A%2F%2Ftracker.openbittorrent.com%3A80&amp;tr=udp%3A%2F%2Fopen.demonii.com%3A1337&amp;tr=udp%3A%2F%2Ftracker.coppersurfer.tk%3A6969&amp;tr=udp%3A%2F%2Fexodus.desync.com%3A6969","seeders":2,"leechers":1,"uploader":"TvTeam","files":3,"time":1415234624,"description":" &lt;a href=&quot;http://www.torrenting.com&quot; rel=&quot;nofollow&quot; target=&quot;_NEW&quot;&gt;http://www.torrenting.com&lt;/a&gt;\n\nSign up is OPEN - for time being. Come and have fun.\n\n\n------------------------------------------------------------------------\nVideo\nID                                       : 1\nFormat                                   : AVC\nFormat/Info                              : Advanced Video Codec\nFormat profile                           : &lt;a class=&quot;__cf_email__&quot; href=&quot;/cdn-cgi/l/email-protection&quot; data-cfemail=&quot;165e7f717e565a253827&quot;&gt;[email&amp;#160;protected]&lt;/a&gt;&lt;script cf-hash='f9e31' type=&quot;text/javascript&quot;&gt;\n/* &lt;![CDATA[ */!function(){try{var t=&quot;currentScript&quot;in document?document.currentScript:function(){for(var t=document.getElementsByTagName(&quot;script&quot;),e=t.length;e--;)if(t[e].getAttribute(&quot;cf-hash&quot;))return t[e]}();if(t&amp;&amp;t.previousSibling){var e,r,n,i,c=t.previousSibling,a=c.getAttribute(&quot;data-cfemail&quot;);if(a){for(e=&quot;&quot;,r=parseInt(a.substr(0,2),16),n=2;a.length-n;n+=2)i=parseInt(a.substr(n,2),16)^r,e+=String.fromCharCode(i);e=document.createTextNode(e),c.parentNode.replaceChild(e,c)}}}catch(u){}}();/* ]]&gt; */&lt;/script&gt;\nFormat settings, CABAC                   : Yes\nFormat settings, ReFrames                : 5 frames\nCodec ID                                 : avc1\nCodec ID/Info                            : Advanced Video Coding\nDuration                                 : 1h 29mn\nBit rate                                 : 1 100 Kbps\nWidth                                    : 720 pixels\nHeight                                   : 304 pixels\nDisplay aspect ratio                     : 2.40:1\nFrame rate mode                          : Constant\nFrame rate                               : 23.976 fps\nColor space                              : YUV\nChroma subsampling                       : 4:2:0\nBit depth                                : 8 bits\nScan type                                : Progressive\nBits/(Pixel*Frame)                       : 0.210\nStream size                              : 695 MiB (89%)\nWriting library                          : x264 core 142 r2455 021c0dc\nEncoding settings                        : cabac=1 / ref=5 / deblock=1:-2:-2 / analyse=0x3:0x113 / me=umh / subme=8 / psy=1 / psy_rd=0.90:0.00 / mixed_ref=1 / me_range=16 / chroma_me=1 / trellis=1 / 8x8dct=1 / cqm=0 / deadzone=21,11 / fast_pskip=1 / chroma_qp_offset=-2 / threads=8 / lookahead_threads=2 / sliced_threads=0 / nr=0 / decimate=1 / interlaced=0 / bluray_compat=0 / constrained_intra=0 / bframes=3 / b_pyramid=2 / b_adapt=2 / b_bias=0 / direct=3 / weightb=1 / open_gop=0 / weightp=2 / keyint=250 / keyint_min=25 / scenecut=40 / intra_refresh=0 / rc_lookahead=50 / rc=abr / mbtree=1 / bitrate=1100 / ratetol=1.0 / qcomp=0.60 / qpmin=0 / qpmax=69 / qpstep=4 / vbv_maxrate=31250 / vbv_bufsize=31250 / nal_hrd=none / filler=0 / ip_ratio=1.40 / aq=1:1.00\nLanguage                                 : English\n\nAudio\nID                                       : 2\nFormat                                   : AAC\nFormat/Info                              : Advanced Audio Codec\nFormat profile                           : LC\nCodec ID                                 : 40\nDuration                                 : 1h 29mn\nBit rate mode                            : Constant\nBit rate                                 : 128 Kbps\nChannel(s)                               : 2 channels\nChannel positions                        : Front: L R\nSampling rate                            : 44.1 KHz\nCompression mode                         : Lossy\nStream size                              : 77.5 MiB (10%)\nLanguage                                 : English","torrent":{"xt":"urn:btih:6e90dacdc36088736f2a67d31a3b6f2cf7035bb4","amp;dn":"Lucy.2014.WEB-DL.x264-ChaoS","amp;tr":["udp%3A%2F%2Ftracker.openbittorrent.com%3A80","udp%3A%2F%2Fopen.demonii.com%3A1337","udp%3A%2F%2Ftracker.coppersurfer.tk%3A6969","udp%3A%2F%2Fexodus.desync.com%3A6969"],"infoHash":"6e90dacdc36088736f2a67d31a3b6f2cf7035bb4","infoHashBuffer":{"type":"Buffer","data":[110,144,218,205,195,96,136,115,111,42,103,211,26,59,111,44,247,3,91,180]},"announce":[],"urlList":[]}}